<?xml version="1.0" standalone="no"?>
<!DOCTYPE svg PUBLIC "-//W3C//DTD SVG 20010904//EN"
 "http://www.w3.org/TR/2001/REC-SVG-20010904/DTD/svg10.dtd">
<svg version="1.0" xmlns="http://www.w3.org/2000/svg"
 width="500.000000pt" height="500.000000pt" viewBox="0 0 500.000000 500.000000"
 preserveAspectRatio="xMidYMid meet">
<metadata>
Created by potrace 1.14, written by Peter Selinger 2001-2017
</metadata>
<g transform="translate(0.000000,500.000000) scale(0.100000,-0.100000)"
fill="#000000" stroke="none">
<path d="M0 2500 l0 -2500 2500 0 2500 0 0 2500 0 2500 -2500 0 -2500 0 0
-2500z m4850 -5 l0 -2355 -2350 0 -2350 0 0 2355 0 2355 2350 0 2350 0 0
-2355z"/>
<path d="M2340 4414 c-14 -2 -65 -9 -115 -15 -441 -54 -900 -305 -1182 -645
l-43 -52 23 -15 c23 -15 25 -14 88 60 72 85 156 161 274 250 330 247 712 373
1132 373 682 0 1335 -408 1648 -1030 56 -111 114 -261 136 -348 9 -37 17 -51
27 -47 7 3 20 5 27 5 11 0 9 15 -7 73 -110 395 -346 744 -668 992 -292 224
-590 344 -969 391 -104 13 -307 17 -371 8z"/>
<path d="M737 3483 c-4 -3 -7 -17 -7 -30 0 -24 25 -42 38 -28 4 4 1 10 -5 12
-7 3 -13 11 -13 19 0 30 39 -6 52 -47 9 -32 9 -56 -1 -112 -12 -70 -31 -113
-31 -70 0 23 -62 148 -86 172 -11 13 -16 8 -33 -30 -40 -88 -22 -197 45 -266
l41 -43 -42 -143 -43 -142 -7 70 c-9 92 -34 146 -77 173 -66 41 -139 16 -124
-43 5 -20 13 -25 37 -25 17 0 32 6 36 15 8 23 -5 31 -20 12 -17 -24 -47 -5
-31 20 16 26 50 27 88 4 49 -31 66 -75 73 -193 l6 -101 -73 76 c-40 42 -76 74
-81 71 -16 -10 -9 -117 10 -159 22 -48 76 -103 110 -112 22 -6 23 -8 17 -66
-3 -33 -6 -85 -6 -116 l0 -56 -32 55 c-54 93 -115 145 -195 169 -39 12 -74 21
-78 21 -13 0 2 -106 21 -146 41 -85 130 -143 229 -147 53 -2 57 -4 62 -30 9
-43 27 -47 20 -4 l-6 37 77 0 c67 0 84 4 128 30 28 16 77 57 108 91 l56 62 52
-28 c29 -15 62 -36 73 -45 11 -10 70 -48 130 -85 61 -36 142 -86 180 -110 39
-23 92 -56 118 -71 69 -42 83 -52 77 -58 -9 -8 -159 64 -240 115 -41 27 -114
76 -162 108 -49 33 -88 55 -88 48 1 -14 8 -20 177 -133 70 -47 168 -104 216
-126 l88 -39 172 10 c95 6 237 22 317 36 341 59 339 58 357 85 34 49 55 68 69
63 7 -2 10 -11 7 -19 -3 -8 1 -14 11 -14 11 0 16 9 16 27 0 14 -3 24 -6 21
-10 -11 -51 37 -58 69 -10 43 -58 81 -148 117 -40 16 -149 62 -243 101 -93 40
-210 87 -260 105 -49 18 -114 46 -143 61 -76 40 -106 43 -250 25 -70 -9 -170
-19 -222 -22 -108 -7 -289 -30 -297 -38 -15 -14 13 -36 103 -83 55 -28 128
-66 164 -86 36 -19 150 -72 253 -117 l188 -83 182 22 c200 24 396 38 527 37
81 -1 85 -2 100 -28 13 -25 13 -31 0 -55 -19 -33 -74 -45 -280 -62 -74 -5
-205 -18 -290 -27 -265 -30 -263 -30 -420 50 -115 58 -435 231 -450 243 -2 2
1 8 8 12 46 28 -122 54 -205 32 -55 -15 -118 -64 -160 -125 l-33 -48 0 53 c0
30 3 70 6 90 6 33 10 37 43 43 49 8 99 51 156 136 27 38 52 70 57 70 4 0 8 5
8 10 0 15 -86 12 -127 -5 -20 -9 -52 -27 -69 -40 l-33 -25 25 56 c55 124 115
183 178 175 16 -2 -16 -31 -35 -31 -11 0 -19 -4 -19 -10 0 -16 36 -11 61 8 49
41 -15 71 -79 38 -36 -19 -56 -42 -92 -107 -16 -30 -30 -49 -30 -43 0 39 81
270 135 379 63 129 85 190 85 233 0 41 -17 23 -24 -25 -4 -27 -23 -79 -42
-118 -19 -38 -32 -62 -29 -52 16 58 26 154 21 191 -10 62 -63 116 -89 89z
m-10 -200 c24 -52 45 -167 26 -148 -6 6 -20 36 -33 68 -12 32 -27 54 -31 50
-5 -5 2 -35 16 -68 33 -80 32 -98 -5 -58 -46 51 -63 142 -38 213 10 31 12 32
26 14 8 -10 25 -42 39 -71z m-133 -573 c7 -14 16 -38 20 -55 l7 -30 -21 25
c-11 14 -25 37 -32 53 -7 15 -19 27 -26 27 -14 0 4 -41 40 -92 27 -38 9 -35
-29 5 -43 45 -63 89 -63 139 l0 42 46 -44 c25 -25 51 -56 58 -70z m256 44 c0
-10 -78 -119 -101 -141 -24 -22 -78 -47 -86 -40 -2 3 9 13 25 23 36 23 87 83
78 91 -4 4 -27 -14 -53 -40 -25 -26 -50 -47 -54 -47 -11 0 7 46 31 80 29 41
160 102 160 74z m-446 -214 c34 -13 68 -35 89 -59 37 -41 92 -129 85 -136 -5
-6 -75 41 -110 73 -15 14 -31 22 -35 19 -9 -10 33 -53 89 -88 27 -18 47 -33
46 -35 -2 -1 -25 2 -51 8 -98 20 -178 103 -194 201 -7 45 1 46 81 17z m546
-29 l31 -19 -56 -60 c-88 -95 -157 -127 -241 -112 l-39 6 40 18 c54 23 165 89
165 99 0 15 -22 6 -92 -38 -108 -67 -124 -60 -59 23 70 88 182 125 251 83z"/>
<path d="M3455 3392 c-5 -4 -15 -16 -21 -27 -6 -11 -19 -22 -29 -24 -22 -4
-45 -25 -45 -40 0 -6 -9 -11 -20 -11 -13 0 -22 -9 -26 -26 -5 -18 -11 -23 -23
-19 -12 5 -13 4 -4 -6 12 -12 33 2 80 53 9 9 23 14 31 10 11 -4 13 -2 7 9 -7
12 -6 12 11 -1 10 -8 16 -10 12 -6 -4 5 3 19 16 31 19 18 22 25 13 35 -7 8 -7
10 -1 7 6 -3 11 0 11 8 0 8 -1 15 -1 15 -1 0 -5 -4 -11 -8z"/>
<path d="M2807 3275 c-10 -14 -14 -25 -10 -25 11 0 40 20 29 20 -5 0 -3 7 4
15 7 8 9 15 4 15 -5 0 -17 -12 -27 -25z"/>
<path d="M2779 3218 c-7 -13 -17 -26 -23 -30 -7 -5 -7 -8 -1 -8 12 0 39 30 43
48 4 19 -6 14 -19 -10z"/>
<path d="M2746 3154 c-5 -14 -4 -15 9 -4 17 14 19 20 6 20 -5 0 -12 -7 -15
-16z"/>
<path d="M3531 2987 c0 -15 -10 -44 -21 -64 -11 -21 -20 -45 -20 -53 0 -8 12
10 26 40 14 30 23 65 21 80 -4 25 -4 25 -6 -3z"/>
<path d="M3477 2921 c-19 -33 -22 -57 -7 -66 6 -3 7 1 4 9 -3 8 1 30 10 47 20
41 15 48 -7 10z"/>
<path d="M3537 2921 c-19 -33 -22 -57 -7 -66 6 -3 7 1 4 9 -3 8 1 30 10 47 20
41 15 48 -7 10z"/>
<path d="M3362 2795 c-29 -13 -33 -18 -28 -42 18 -93 27 -157 22 -170 -3 -8
-1 -11 4 -8 6 3 10 1 10 -5 0 -6 4 -8 10 -5 5 3 12 -5 16 -19 7 -28 -18 -112
-32 -109 -5 1 -23 4 -39 8 -25 5 -27 4 -12 -5 10 -6 28 -13 40 -14 12 -1 33
-8 46 -15 41 -23 135 -26 186 -6 37 14 47 23 52 46 4 21 10 28 22 25 9 -2 37
-9 63 -16 154 -40 21 -104 -212 -102 -69 1 -150 7 -182 15 -47 12 -55 12 -51
0 3 -7 26 -23 52 -35 40 -20 63 -22 181 -23 121 0 141 3 195 24 78 32 99 52
91 84 -6 26 -49 49 -118 61 -43 8 -49 21 -15 32 43 13 76 55 91 117 5 20 3 27
-4 22 -7 -4 -18 3 -27 14 -35 51 -83 4 -83 -81 0 -41 3 -48 19 -48 11 0 23 5
27 11 4 8 -1 9 -16 4 -23 -7 -23 -6 -17 46 7 57 26 85 51 76 22 -9 21 -66 -1
-97 -10 -14 -16 -27 -14 -30 2 -3 -10 -11 -28 -19 -25 -12 -31 -21 -31 -46 0
-17 -6 -38 -12 -47 -29 -38 -169 -46 -214 -14 -15 11 -15 18 -6 46 16 45 15
82 -3 106 -22 29 -18 93 9 136 12 21 26 35 29 31 4 -3 7 -1 7 5 0 27 -21 20
-34 -11 -8 -19 -19 -38 -25 -41 -6 -4 -12 -19 -12 -34 -1 -15 -7 2 -13 38 -15
81 -9 90 71 100 56 7 56 7 13 8 -25 1 -60 -5 -78 -13z"/>
<path d="M3580 2800 c86 -12 91 -16 84 -61 -6 -38 -5 -39 21 -39 16 0 37 -7
47 -17 10 -9 18 -11 18 -5 0 15 -33 32 -60 32 -19 0 -20 4 -14 35 6 33 4 36
-30 50 -19 8 -55 14 -78 14 -42 -2 -42 -2 12 -9z"/>
<path d="M4362 2729 l3 -30 -80 -2 c-72 -2 -86 -5 -130 -34 -28 -18 -83 -68
-123 -113 l-73 -80 28 -11 c15 -7 62 -12 103 -12 61 0 84 4 125 25 54 28 101
73 134 128 l21 35 0 -61 c0 -84 -9 -124 -28 -124 -39 0 -102 -44 -143 -98 -23
-31 -55 -74 -71 -94 -33 -44 -34 -48 -8 -48 51 0 125 25 165 56 l45 34 -25
-58 c-47 -106 -116 -182 -166 -182 -30 0 -22 20 14 35 26 11 29 15 14 20 -23
9 -67 -20 -67 -45 0 -45 85 -32 138 23 17 17 42 52 56 77 14 25 26 40 26 34 0
-36 -82 -261 -140 -384 -64 -136 -96 -240 -72 -240 5 0 13 20 16 44 4 23 22
74 42 112 19 38 32 61 29 50 -15 -52 -27 -158 -21 -189 9 -47 42 -87 72 -87
19 0 24 5 24 24 0 13 -7 29 -15 36 -24 20 -31 3 -9 -21 19 -21 19 -21 -1 -18
-11 2 -28 21 -39 43 -18 36 -18 47 -8 120 11 76 32 127 32 79 0 -25 80 -183
93 -183 4 0 17 21 29 47 39 89 6 226 -67 280 -24 17 -25 21 -15 48 7 17 27 82
45 145 19 63 34 106 35 95 2 -66 20 -159 35 -181 49 -75 175 -86 175 -15 0 37
-64 59 -77 26 -7 -21 6 -33 17 -16 10 17 40 7 40 -13 0 -32 -66 -35 -105 -4
-41 32 -55 78 -61 191 -4 86 -3 99 8 82 19 -30 128 -135 140 -135 6 0 9 28 6
74 -3 64 -8 81 -34 118 -26 37 -76 80 -104 90 -6 2 -7 48 -3 116 l6 113 28
-51 c54 -98 109 -146 199 -174 25 -8 54 -17 64 -22 18 -7 19 -3 14 53 -13 137
-108 230 -248 242 -62 6 -65 7 -68 34 -2 15 -8 27 -13 27 -6 0 -9 -14 -7 -31z
m-18 -58 c3 -5 -6 -12 -21 -16 -29 -7 -160 -82 -169 -96 -12 -20 26 -6 96 36
91 55 106 57 79 11 -29 -50 -100 -111 -145 -127 -45 -15 -160 -17 -174 -3 -15
15 128 160 181 184 45 20 143 27 153 11z m191 -15 c28 -12 64 -39 81 -58 35
-40 67 -115 62 -145 -3 -19 -5 -19 -56 -5 -64 18 -132 75 -172 146 -17 28 -30
55 -30 59 0 9 82 -45 117 -76 13 -11 26 -17 30 -14 9 10 -23 43 -78 78 -27 17
-49 33 -49 35 0 11 51 1 95 -20z m-249 -279 c-31 -29 -56 -58 -56 -65 0 -17
17 -6 53 35 16 19 38 38 49 44 18 10 18 9 3 -28 -23 -55 -65 -93 -126 -113
-30 -10 -56 -17 -58 -15 -5 6 54 95 88 133 24 26 77 59 99 62 2 0 -21 -24 -52
-53z m184 -49 c31 -42 44 -88 38 -129 -3 -23 -6 -21 -53 26 -33 33 -55 65 -63
93 -8 24 -12 46 -10 48 2 2 19 -21 37 -51 18 -30 37 -52 43 -49 8 5 -5 34 -48
99 l-18 28 22 -12 c13 -7 36 -30 52 -53z m-144 -503 c25 -53 31 -125 14 -170
-5 -14 -15 -23 -20 -20 -23 15 -72 130 -77 184 -6 65 5 60 32 -14 19 -53 31
-72 40 -63 4 3 -5 33 -19 67 -14 33 -26 68 -26 77 0 28 30 -5 56 -61z"/>
<path d="M2966 2664 c-18 -18 -21 -56 -6 -85 14 -25 61 -25 83 -1 35 39 11
102 -38 102 -13 0 -31 -7 -39 -16z m64 -9 c10 -12 10 -15 -4 -15 -9 0 -16 7
-16 15 0 8 2 15 4 15 2 0 9 -7 16 -15z"/>
<path d="M2662 2568 c-17 -17 -15 -64 4 -83 43 -42 102 12 76 70 -13 27 -58
35 -80 13z m58 -19 c0 -6 -4 -7 -10 -4 -5 3 -10 11 -10 16 0 6 5 7 10 4 6 -3
10 -11 10 -16z"/>
<path d="M2606 2265 c3 -8 0 -23 -6 -36 -11 -19 -9 -25 16 -46 24 -19 37 -23
72 -18 47 5 102 30 102 45 0 6 -17 10 -37 10 -22 0 -63 13 -95 29 -33 17 -54
23 -52 16z"/>
<path d="M2460 2121 c0 -5 7 -12 16 -15 20 -8 8 -26 -18 -26 -17 0 -20 -4 -15
-29 4 -18 2 -31 -5 -33 -6 -2 -10 -15 -10 -29 0 -17 -6 -25 -19 -26 -21 -2
-271 -59 -314 -73 -16 -5 -66 -16 -110 -24 -44 -9 -129 -25 -190 -37 -60 -12
-122 -23 -136 -26 -17 -3 -35 3 -55 19 -16 13 -58 42 -94 64 -36 23 -100 63
-144 90 -43 27 -90 56 -105 65 -19 12 -29 14 -40 5 -8 -6 -17 -10 -20 -10 -20
4 -124 -60 -113 -70 3 -4 -1 -4 -10 -1 -23 9 -48 -31 -48 -76 0 -46 15 -59
160 -138 361 -198 471 -258 521 -284 l57 -29 68 25 c38 14 112 45 164 69 52
25 146 62 208 83 61 22 112 43 112 48 0 5 -8 6 -17 2 -10 -4 -62 -22 -116 -41
-54 -19 -132 -50 -175 -70 -94 -44 -222 -94 -242 -94 -8 0 -64 28 -125 61 -60
34 -175 96 -255 139 -225 120 -313 171 -327 189 -13 16 -18 71 -7 71 3 0 65
-30 138 -67 73 -38 147 -75 164 -83 17 -8 74 -42 127 -74 53 -33 135 -74 182
-91 l85 -33 82 39 c45 21 92 40 106 42 51 10 112 41 120 61 7 17 9 18 9 4 1
-16 8 -14 59 11 31 16 74 32 95 35 33 6 37 10 32 29 -4 12 -9 30 -12 40 -2 9
-2 31 2 47 9 43 35 38 92 -15 26 -24 53 -45 59 -45 6 0 31 7 55 16 24 9 69 16
99 15 46 -1 64 4 110 31 63 38 78 68 33 68 -67 1 -141 56 -183 138 -19 37 -50
58 -50 33z"/>
<path d="M2273 2086 c-28 -6 -54 -14 -58 -18 -3 -3 14 -20 39 -37 41 -29 49
-31 100 -25 31 4 61 13 67 20 7 8 7 14 2 14 -6 0 -27 14 -48 30 -21 17 -41 29
-44 29 -3 -1 -29 -7 -58 -13z"/>
<path d="M651 1976 c44 -173 142 -383 258 -556 234 -350 591 -618 988 -743
575 -181 1175 -105 1653 210 167 110 367 288 427 379 15 24 15 26 -3 44 -19
19 -20 18 -74 -47 -108 -130 -304 -288 -484 -392 -473 -270 -1081 -318 -1571
-124 -457 181 -811 503 -1021 930 -51 104 -112 266 -129 341 -5 27 -11 32 -35
32 l-28 0 19 -74z"/>
<path d="M2512 1736 c-50 -17 -27 -27 24 -9 24 8 44 17 44 19 0 7 -35 3 -68
-10z"/>
</g>
</svg>
