<?xml version="1.0" standalone="no"?>
<!DOCTYPE svg PUBLIC "-//W3C//DTD SVG 20010904//EN"
 "http://www.w3.org/TR/2001/REC-SVG-20010904/DTD/svg10.dtd">
<svg version="1.0" xmlns="http://www.w3.org/2000/svg"
 width="1152.000000pt" height="1152.000000pt" viewBox="0 0 1152.000000 1152.000000"
 preserveAspectRatio="xMidYMid meet">
<metadata>
Created by potrace 1.14, written by Peter Selinger 2001-2017
</metadata>
<g transform="translate(0.000000,1152.000000) scale(0.100000,-0.100000)"
fill="#000000" stroke="none">
<path d="M0 5760 l0 -5760 5760 0 5760 0 0 5760 0 5760 -5760 0 -5760 0 0
-5760z m4367 2301 c116 -30 238 -78 393 -156 201 -101 516 -241 632 -281 134
-46 202 -52 598 -58 206 -3 408 -2 448 3 66 8 103 23 350 144 259 126 480 223
597 260 122 39 309 50 369 22 55 -26 69 -56 61 -128 -4 -44 -2 -74 9 -104 16
-45 14 -109 -3 -126 -13 -13 -38 14 -89 93 -37 60 -68 89 -92 90 -8 0 -38 -11
-66 -24 -28 -13 -79 -26 -115 -30 -35 -4 -72 -9 -82 -12 -16 -5 -18 -1 -14 25
7 41 -14 46 -94 26 -74 -20 -104 -34 -183 -89 -32 -23 -74 -51 -93 -64 -51
-35 -72 -59 -94 -109 -23 -55 -148 -187 -204 -216 -51 -26 -245 -36 -314 -15
-47 14 -83 52 -86 90 -2 24 -50 57 -75 51 -8 -2 -28 -5 -45 -6 -45 -5 -83 -24
-89 -44 -9 -28 -67 -45 -149 -43 -183 4 -232 3 -372 -4 -127 -7 -156 -6 -187
7 -21 9 -38 21 -38 26 0 6 18 29 40 52 22 23 40 43 40 44 0 6 -130 56 -149 58
-11 1 -21 4 -21 8 0 3 -11 4 -25 1 -41 -7 -140 26 -285 95 -211 101 -390 166
-390 142 0 -5 -12 -6 -28 -3 -19 4 -50 -5 -103 -30 -42 -20 -83 -36 -92 -36
-8 0 -32 -19 -53 -41 -22 -23 -49 -53 -61 -65 -12 -14 -20 -33 -18 -44 2 -12
-5 -41 -15 -65 -12 -29 -20 -72 -21 -120 -1 -41 -4 -75 -8 -75 -3 0 -7 -12 -8
-27 -1 -16 -5 -48 -8 -73 -10 -80 -13 -150 -5 -150 7 0 14 -29 22 -87 1 -7 4
-13 8 -13 10 0 3 -63 -10 -95 -7 -16 -13 -33 -12 -37 5 -25 -48 -110 -115
-180 -108 -114 -178 -208 -189 -256 -4 -15 -10 -29 -14 -32 -26 -18 -120 -266
-120 -317 0 -16 -7 -50 -16 -75 -20 -60 -43 -55 -73 17 -12 29 -30 60 -40 69
-18 16 -19 15 -31 -33 -6 -27 -12 -76 -12 -108 0 -32 -7 -70 -14 -85 -9 -17
-17 -76 -20 -150 -3 -68 -7 -136 -9 -153 -1 -16 -3 -74 -4 -127 l-1 -98 -36
-37 c-42 -43 -42 -50 6 -168 57 -140 94 -313 59 -278 -27 28 -129 344 -155
481 -21 112 -28 355 -15 507 13 141 63 376 106 494 36 99 99 228 190 391 135
241 121 187 185 705 70 571 94 641 239 682 62 18 205 10 308 -16z m3537 -847
c3 -26 6 -83 6 -128 0 -197 19 -264 130 -456 231 -402 288 -609 277 -1009 -7
-299 -60 -511 -196 -795 -73 -151 -173 -311 -266 -422 -80 -96 -238 -256 -310
-314 -141 -112 -352 -225 -561 -299 -76 -27 -159 -56 -183 -65 -47 -17 -126
-22 -117 -7 4 5 0 12 -6 14 -8 3 -6 6 5 6 9 1 17 5 17 10 0 7 150 81 166 81 3
0 48 23 98 52 68 39 115 76 185 147 88 89 216 241 271 321 13 19 30 40 36 45
7 6 22 37 33 70 12 33 29 71 40 85 10 14 28 43 39 65 11 22 35 51 52 64 18 13
30 17 26 10 -4 -8 -1 -6 7 4 8 9 19 17 26 17 6 0 11 4 11 9 0 13 124 60 175
65 12 2 33 10 45 19 22 15 22 17 4 22 -85 27 -104 55 -38 55 27 0 34 4 34 20
0 12 12 26 31 36 17 9 41 27 53 41 21 24 22 28 8 68 -20 62 -45 80 -162 119
-58 19 -99 35 -92 36 24 0 165 -38 235 -65 37 -14 69 -25 71 -25 2 0 -3 24
-11 53 -9 31 -12 71 -8 101 3 27 8 105 11 174 l5 125 -23 -6 c-33 -9 -68 3
-68 22 0 9 20 36 44 60 28 28 47 56 51 77 6 37 11 39 49 24 31 -11 32 -7 6 35
-15 24 -32 36 -67 46 -57 16 -167 17 -245 3 -96 -18 -65 0 42 25 99 23 159 23
199 1 11 -5 31 -10 45 -10 14 0 41 -14 62 -32 l37 -33 -7 30 c-3 17 -11 75
-17 130 -6 55 -17 116 -25 135 -7 19 -20 64 -29 100 -9 36 -27 104 -41 151
-13 47 -24 96 -24 108 0 11 -10 29 -21 39 -42 34 -59 56 -59 77 0 26 -28 67
-41 59 -5 -3 -9 -2 -8 3 2 9 -4 27 -36 103 -21 50 -37 104 -51 170 -3 14 -10
40 -16 57 -9 26 -9 47 1 95 7 35 16 79 18 98 6 39 49 130 62 130 4 0 11 -21
15 -46z m-210 -78 c9 -24 21 -81 26 -128 9 -80 25 -141 48 -184 26 -48 64
-152 66 -179 3 -30 2 -30 -42 -26 -40 3 -52 10 -96 55 -66 67 -103 139 -118
226 -9 54 -9 77 0 103 7 18 12 39 12 45 0 14 49 93 65 104 5 4 6 8 2 8 -11 0
2 20 12 20 5 0 16 -20 25 -44z m-2496 -781 c54 -24 120 -80 109 -91 -5 -6 -68
26 -90 45 -10 8 -30 17 -45 19 -14 2 -32 8 -39 14 -19 16 -179 3 -209 -17 -18
-12 -23 -21 -18 -40 5 -19 -5 -37 -45 -85 -28 -34 -51 -65 -51 -70 0 -5 -14
-25 -31 -45 -33 -37 -51 -93 -52 -155 0 -52 11 -117 24 -143 13 -26 83 -91
113 -105 12 -6 44 -20 71 -33 30 -13 43 -24 34 -26 -24 -6 -129 36 -126 50 1
7 -6 12 -15 12 -10 0 -17 3 -15 7 3 11 -65 78 -74 72 -4 -2 -13 5 -19 17 -10
17 -9 20 2 14 7 -4 3 2 -8 12 -28 23 -47 61 -40 78 3 8 0 16 -7 18 -8 2 -12
35 -12 103 1 85 4 107 27 156 46 100 137 180 241 214 71 23 200 13 275 -21z
m1739 -15 c55 -27 119 -78 110 -86 -5 -5 -85 34 -89 43 -4 10 -127 53 -153 53
-17 0 -17 2 -5 10 27 18 76 10 137 -20z m-266 11 c-17 -11 0 -22 26 -17 11 3
26 0 34 -6 11 -8 10 -9 -3 -4 -10 3 -18 1 -18 -5 0 -5 -6 -9 -12 -8 -31 4 -37
-2 -32 -29 5 -23 -1 -32 -34 -59 -22 -18 -52 -52 -67 -76 -15 -24 -40 -50 -56
-59 -22 -13 -29 -26 -34 -65 -10 -71 -11 -72 -34 -23 l-22 45 6 -77 c5 -65 4
-78 -9 -78 -22 0 -32 99 -17 166 29 126 108 230 214 280 50 23 86 32 58 15z
m-1316 -137 c62 -34 95 -217 60 -325 -35 -107 -114 -199 -202 -235 l-38 -16
23 24 c27 30 29 42 3 28 -26 -13 -81 -13 -81 1 0 6 39 53 88 105 80 87 89 94
118 90 l32 -4 -5 69 c-3 38 -2 69 1 69 3 0 15 -15 26 -32 l20 -33 0 43 c0 55
-19 132 -37 154 -8 9 -12 22 -7 29 4 8 3 10 -4 5 -6 -4 -18 6 -27 23 -18 36
-19 52 -2 31 7 -8 21 -20 32 -26z m1742 -7 c7 3 24 -19 40 -52 24 -48 26 -57
13 -66 -13 -9 -12 -10 2 -5 14 4 18 -4 24 -40 24 -163 -71 -341 -213 -401
l-37 -15 32 30 c32 30 43 72 19 72 -6 0 -27 -4 -44 -9 -18 -5 -35 -6 -38 -1
-3 4 17 30 43 56 49 50 112 135 112 152 0 15 29 69 44 81 10 9 17 4 29 -21 15
-32 16 -32 10 37 -3 39 -6 84 -7 101 -1 23 -5 30 -17 27 -11 -3 -23 9 -37 37
-16 34 -17 39 -4 27 10 -8 23 -12 29 -10z m-660 -357 c0 -32 -11 -32 -20 0 -3
11 -1 18 4 14 5 -3 9 0 9 5 0 6 2 11 3 11 2 0 4 -13 4 -30z m-2542 -7 c39 -8
75 -19 80 -25 6 -6 1 -7 -15 -4 -95 22 -120 26 -162 26 -40 0 -48 -3 -48 -19
0 -10 -11 -26 -24 -34 -13 -9 -36 -37 -50 -64 -32 -56 -26 -75 36 -125 21 -16
38 -34 38 -39 0 -20 -59 -7 -110 24 -120 71 -133 191 -27 260 40 27 46 28 127
22 47 -4 117 -13 155 -22z m344 -70 c138 -27 211 -73 226 -143 8 -38 -12 -100
-32 -100 -9 0 -13 6 -9 15 3 8 9 22 12 31 5 12 1 14 -20 8 -21 -5 -26 -3 -26
13 0 33 -53 74 -152 116 -26 11 -36 21 -32 31 4 11 -11 20 -58 35 -71 22 -42
21 91 -6z m2242 -15 c11 -21 11 -22 -4 -9 -10 7 -17 17 -17 22 0 15 9 10 21
-13z m1039 3 c-27 -15 -30 -20 -16 -22 13 -3 0 -15 -44 -39 -64 -36 -120 -90
-120 -115 0 -18 -5 -18 -30 -5 -15 8 -18 6 -16 -18 2 -41 -17 -39 -32 3 -18
53 -1 107 43 141 41 31 165 73 215 73 l35 0 -35 -18z m-1009 -48 c13 -16 12
-17 -3 -4 -10 7 -18 15 -18 17 0 8 8 3 21 -13z m79 -36 c0 -2 -8 -3 -18 -3
-10 0 -19 6 -19 13 0 8 6 9 19 2 10 -5 18 -11 18 -12z m72 -42 c29 -14 45 -25
36 -25 -25 0 -98 31 -98 41 0 12 1 12 62 -16z m-2282 -130 c-6 -8 -9 -18 -6
-24 14 -22 -195 -31 -269 -12 -33 8 -23 9 51 5 80 -5 93 -4 102 11 5 10 34 28
63 41 46 19 55 20 62 8 5 -9 4 -21 -3 -29z m3203 -42 c-7 -2 -19 -2 -25 0 -7
3 -2 5 12 5 14 0 19 -2 13 -5z m-1589 -54 c56 -15 86 -49 86 -97 0 -22 -6 -45
-14 -51 -12 -10 -18 -3 -37 33 -38 76 -89 109 -89 57 0 -10 -15 -24 -40 -35
-35 -15 -40 -22 -40 -49 0 -18 4 -38 9 -46 12 -19 -9 -50 -76 -115 -78 -74
-123 -96 -197 -95 -94 1 -121 13 -139 59 -13 35 -20 40 -46 40 -26 0 -33 -6
-46 -36 -8 -20 -15 -59 -15 -87 0 -44 4 -54 32 -79 18 -16 56 -36 85 -44 50
-15 71 -34 37 -34 -8 0 -12 -5 -8 -11 11 -18 -54 0 -109 29 -79 42 -130 142
-112 221 9 42 77 101 116 101 37 0 68 -15 93 -48 61 -77 234 -65 286 20 23 39
25 73 5 108 -61 107 68 201 219 159z m-1567 -130 c65 -24 100 -89 82 -152 -11
-42 -61 -97 -114 -128 l-40 -22 27 29 c15 16 38 50 52 76 l25 47 -32 35 c-44
49 -153 87 -228 80 -74 -7 -42 13 49 31 84 17 143 18 179 4z m3041 -5 c99 -20
128 -37 50 -30 -36 4 -58 2 -58 -4 0 -5 -9 -10 -20 -10 -30 0 -132 -38 -149
-55 -13 -13 -17 -13 -33 2 -17 15 -18 14 -18 -35 0 -60 -13 -67 -30 -16 -19
55 8 116 63 143 50 25 93 26 195 5z m139 -75 c44 -18 10 -22 -39 -5 -36 13
-39 15 -16 16 15 0 39 -5 55 -11z m-3681 -25 c-39 -13 -72 -27 -75 -31 -3 -5
-39 -37 -78 -72 -70 -60 -73 -65 -73 -107 0 -40 3 -45 34 -58 18 -7 42 -24 54
-36 11 -12 25 -19 31 -15 6 3 11 1 11 -4 0 -16 -107 -13 -139 4 -100 51 -109
169 -19 237 53 40 95 59 192 83 119 30 149 30 62 -1z m2581 -35 c14 -13 34
-42 44 -64 44 -98 -41 -212 -184 -248 -112 -28 -188 -19 -194 25 -3 23 1 27
39 37 56 15 153 63 153 76 0 6 4 16 9 23 18 29 -11 35 -81 18 -37 -9 -76 -16
-87 -16 -27 0 -143 58 -150 75 -8 21 11 19 43 -4 15 -11 39 -23 54 -26 31 -8
97 12 97 29 0 12 75 71 120 94 37 18 107 9 137 -19z m-552 -159 c4 -6 -13 -19
-37 -30 -96 -42 -132 -34 -61 15 39 26 87 33 98 15z m-1605 -4 c0 -6 -123 -47
-127 -42 -2 2 20 12 49 24 52 20 78 26 78 18z m3156 -40 c38 -14 64 -25 58
-25 -5 -1 -41 10 -80 23 -38 14 -64 25 -58 25 5 1 41 -10 80 -23z m-1756 -103
c-44 -19 -137 -34 -167 -27 -42 11 -24 24 35 25 31 0 75 4 97 8 61 13 74 11
35 -6z m-1291 -866 c30 -23 57 -49 59 -57 4 -12 2 -13 -9 -4 -8 6 -37 19 -64
28 -44 14 -114 62 -165 112 -32 32 127 -38 179 -79z m256 -118 c22 -6 65 -18
95 -28 30 -10 69 -21 87 -24 31 -6 31 -6 23 23 -8 27 -6 31 16 36 29 8 59 2
239 -41 77 -19 179 -39 227 -46 49 -7 101 -20 119 -31 31 -19 32 -26 13 -72
-5 -14 -4 -17 4 -12 19 11 14 -8 -8 -31 -13 -14 -29 -20 -47 -18 -15 2 -63 4
-107 6 -101 3 -373 50 -451 79 -33 12 -75 25 -93 30 -19 5 -41 15 -50 23 -9 9
-30 19 -47 23 -27 7 -114 79 -115 96 0 7 32 3 95 -13z"/>
<path d="M8170 5691 c0 -5 -15 -31 -33 -58 l-33 -49 28 -45 c15 -24 35 -68 44
-96 16 -55 33 -70 35 -30 0 12 2 31 5 42 4 19 -11 173 -22 223 -4 21 -24 32
-24 13z"/>
<path d="M7090 6176 c0 -9 5 -16 10 -16 6 0 10 4 10 9 0 6 -4 13 -10 16 -5 3
-10 -1 -10 -9z"/>
<path d="M7057 5903 c-13 -12 -7 -61 8 -67 23 -8 42 38 25 59 -14 16 -23 19
-33 8z"/>
<path d="M5370 4875 c7 -8 18 -15 25 -15 8 0 15 -4 17 -8 2 -5 17 -12 33 -16
35 -8 24 2 -37 34 -45 24 -55 25 -38 5z"/>
</g>
</svg>
